<svg aria-hidden="true" style="position: absolute; width: 0; height: 0; overflow: hidden;" version="1.1" xmlns="http://www.w3.org/2000/svg" xmlns:xlink="http://www.w3.org/1999/xlink">
<defs>
<symbol id="icon-database" viewBox="0 0 32 32">
<title>database</title>
<path d="M16 0c-8.837 0-16 2.239-16 5v4c0 2.761 7.163 5 16 5s16-2.239 16-5v-4c0-2.761-7.163-5-16-5z"></path>
<path d="M16 17c-8.837 0-16-2.239-16-5v6c0 2.761 7.163 5 16 5s16-2.239 16-5v-6c0 2.761-7.163 5-16 5z"></path>
<path d="M16 26c-8.837 0-16-2.239-16-5v6c0 2.761 7.163 5 16 5s16-2.239 16-5v-6c0 2.761-7.163 5-16 5z"></path>
</symbol>
<symbol id="icon-amazon" viewBox="0 0 32 32">
<title>amazon</title>
<path d="M0.060 24.027c0.096-0.155 0.249-0.165 0.464-0.029 4.848 2.813 10.125 4.221 15.827 4.221 3.803 0 7.557-0.711 11.263-2.127l0.42-0.187c0.184-0.080 0.312-0.133 0.391-0.173 0.301-0.117 0.52-0.061 0.7 0.173 0.16 0.232 0.12 0.448-0.16 0.64-0.341 0.253-0.8 0.547-1.341 0.872-1.659 0.991-3.52 1.755-5.58 2.301-2.040 0.541-4.060 0.813-6.021 0.813-3.020 0-5.88-0.528-8.58-1.583-2.693-1.059-5.093-2.547-7.24-4.467-0.133-0.099-0.2-0.2-0.2-0.293 0-0.063 0.027-0.12 0.067-0.173zM8.813 15.736c0-1.34 0.329-2.484 0.991-3.436 0.66-0.947 1.56-1.667 2.72-2.153 1.061-0.447 2.341-0.767 3.883-0.96 0.52-0.061 1.377-0.137 2.56-0.232v-0.493c0-1.24-0.14-2.077-0.4-2.5-0.403-0.573-1.040-0.867-1.92-0.867h-0.243c-0.64 0.061-1.195 0.261-1.661 0.613-0.467 0.36-0.767 0.84-0.9 1.461-0.080 0.4-0.275 0.62-0.58 0.68l-3.36-0.42c-0.331-0.080-0.496-0.24-0.496-0.52 0-0.061 0.009-0.12 0.029-0.2 0.329-1.72 1.14-3 2.427-3.84 1.301-0.821 2.8-1.3 4.52-1.4h0.72c2.2 0 3.943 0.579 5.184 1.72 0.18 0.2 0.36 0.4 0.54 0.64 0.16 0.22 0.299 0.419 0.377 0.6 0.1 0.179 0.2 0.44 0.26 0.76 0.080 0.339 0.14 0.56 0.18 0.68 0.040 0.139 0.083 0.4 0.101 0.82 0.013 0.417 0.027 0.657 0.027 0.737v7.040c0 0.501 0.080 0.96 0.22 1.381 0.14 0.417 0.28 0.72 0.42 0.899l0.68 0.899c0.12 0.181 0.181 0.341 0.181 0.48 0 0.16-0.080 0.301-0.24 0.419-1.6 1.4-2.48 2.16-2.617 2.28-0.22 0.18-0.5 0.2-0.84 0.060-0.26-0.221-0.5-0.443-0.701-0.661l-0.413-0.463c-0.080-0.099-0.221-0.28-0.423-0.56l-0.4-0.58c-1.080 1.181-2.137 1.92-3.2 2.22-0.659 0.2-1.457 0.303-2.44 0.303-1.48 0-2.72-0.457-3.68-1.379-0.96-0.92-1.44-2.22-1.44-3.92l-0.067-0.101zM13.817 15.152c0 0.755 0.187 1.36 0.567 1.819 0.38 0.453 0.9 0.683 1.54 0.683 0.060 0 0.141-0.009 0.26-0.027 0.12-0.021 0.179-0.031 0.221-0.031 0.819-0.213 1.44-0.737 1.899-1.571 0.22-0.373 0.38-0.773 0.48-1.213 0.12-0.427 0.16-0.787 0.18-1.067 0.020-0.26 0.020-0.72 0.020-1.34v-0.72c-1.12 0-1.979 0.080-2.56 0.24-1.7 0.48-2.56 1.56-2.56 3.24l-0.047-0.027zM26.033 24.521c0.040-0.080 0.1-0.147 0.176-0.227 0.483-0.324 0.952-0.547 1.4-0.667 0.733-0.177 1.453-0.296 2.149-0.32 0.187-0.016 0.373 0 0.547 0.040 0.867 0.080 1.4 0.224 1.563 0.44 0.084 0.12 0.12 0.304 0.12 0.52v0.2c0 0.68-0.187 1.48-0.553 2.4-0.371 0.92-0.885 1.664-1.541 2.24-0.097 0.080-0.187 0.12-0.263 0.12-0.040 0-0.080 0-0.12-0.016-0.12-0.059-0.143-0.16-0.085-0.32 0.72-1.68 1.075-2.857 1.075-3.52 0-0.2-0.040-0.36-0.116-0.459-0.193-0.221-0.733-0.343-1.632-0.343-0.324 0-0.711 0.021-1.16 0.061-0.484 0.060-0.933 0.12-1.333 0.18-0.12 0-0.197-0.019-0.24-0.059-0.040-0.040-0.048-0.063-0.027-0.103 0-0.023 0.008-0.040 0.027-0.084v-0.080z"></path>
</symbol>
<symbol id="icon-codepen" viewBox="0 0 32 32">
<title>codepen</title>
<path d="M32 10.909l-0.024-0.116-0.023-0.067c-0.013-0.032-0.024-0.067-0.040-0.1-0.004-0.024-0.020-0.045-0.027-0.067l-0.047-0.089-0.040-0.067-0.059-0.080-0.061-0.060-0.080-0.060-0.061-0.040-0.080-0.059-0.059-0.053-0.020-0.027-14.607-9.772c-0.463-0.309-1.061-0.309-1.523 0l-14.805 9.883-0.051 0.053-0.067 0.075-0.049 0.060-0.067 0.080c-0.027 0.023-0.040 0.040-0.040 0.061l-0.067 0.080-0.027 0.080c-0.027 0.013-0.027 0.053-0.040 0.093l-0.013 0.067c-0.025 0.041-0.025 0.081-0.025 0.121v9.996c0 0.059 0.004 0.12 0.013 0.18l0.013 0.061c0.007 0.040 0.013 0.080 0.027 0.115l0.020 0.067c0.013 0.036 0.021 0.071 0.036 0.1l0.029 0.067c0 0.013 0.020 0.053 0.040 0.080l0.040 0.053c0.020 0.013 0.040 0.053 0.060 0.080l0.040 0.053 0.053 0.053c0.013 0.017 0.013 0.040 0.040 0.040l0.080 0.056 0.053 0.040 0.013 0.019 14.627 9.773c0.219 0.16 0.5 0.217 0.76 0.217s0.52-0.080 0.76-0.24l14.877-9.875 0.069-0.077 0.044-0.060 0.053-0.080 0.040-0.067 0.040-0.093 0.021-0.069 0.040-0.103 0.020-0.060 0.040-0.107v-10c0-0.067 0-0.127-0.021-0.187l-0.019-0.060 0.059 0.004zM16.013 19.283l-4.867-3.253 4.867-3.256 4.867 3.253-4.867 3.253zM14.635 10.384l-5.964 3.987-4.817-3.221 10.781-7.187v6.424zM6.195 16.028l-3.443 2.307v-4.601l3.443 2.301zM8.671 17.695l5.964 3.987v6.427l-10.781-7.188 4.824-3.223v-0.005zM17.387 21.681l5.965-3.973 4.817 3.227-10.783 7.187v-6.427zM25.827 16.041l3.444-2.293v4.608l-3.444-2.307zM23.353 14.388l-5.964-3.988v-6.44l10.78 7.187-4.816 3.224z"></path>
</symbol>
<symbol id="icon-css3" viewBox="0 0 32 32">
<title>css3</title>
<path d="M2 0h28l-2.547 28.751-11.484 3.249-11.42-3.251-2.549-28.749zM24.787 5.884l-17.573-0.004 0.284 3.496 13.5 0.003-0.34 3.621h-8.853l0.32 3.431h8.243l-0.488 4.697-3.88 1.072-3.941-1.080-0.251-2.813h-3.48l0.387 5.14 7.287 2.271 7.164-2.040 1.623-17.792z"></path>
</symbol>
<symbol id="icon-docker" viewBox="0 0 32 32">
<title>docker</title>
<path d="M6.427 23.033c-0.912 0-1.739-0.747-1.739-1.653s0.747-1.657 1.74-1.657c0.997 0 1.747 0.747 1.747 1.656s-0.829 1.653-1.74 1.653zM27.776 14.016c-0.18-1.323-1-2.4-2.080-3.227l-0.42-0.333-0.339 0.413c-0.659 0.747-0.92 2.071-0.84 3.060 0.080 0.749 0.32 1.493 0.739 2.072-0.339 0.173-0.757 0.333-1.080 0.503-0.76 0.249-1.499 0.333-2.24 0.333h-21.387l-0.080 0.493c-0.16 1.576 0.080 3.227 0.749 4.72l0.325 0.58v0.080c2 3.311 5.56 4.8 9.437 4.8 7.459 0 13.576-3.227 16.476-10.177 1.9 0.083 3.819-0.413 4.72-2.235l0.24-0.413-0.4-0.249c-1.080-0.659-2.56-0.747-3.8-0.413l-0.024 0.003zM17.099 12.693h-3.237v3.227h3.24v-3.229l-0.003 0.004zM17.099 8.636h-3.237v3.227h3.24v-3.223l-0.003-0.004zM17.099 4.497h-3.237v3.227h3.24v-3.227h-0.003zM21.059 12.693h-3.219v3.227h3.227v-3.229l-0.009 0.004zM9.061 12.693h-3.217v3.227h3.229v-3.229l-0.013 0.004zM13.101 12.693h-3.2v3.227h3.219v-3.229l-0.020 0.004zM5.061 12.693h-3.195v3.227h3.237v-3.229l-0.040 0.004zM13.101 8.636h-3.2v3.227h3.219v-3.223l-0.020-0.004zM9.041 8.636h-3.192v3.227h3.217v-3.223l-0.021-0.004z"></path>
</symbol>
<symbol id="icon-facebook" viewBox="0 0 32 32">
<title>facebook</title>
<path d="M30.235 0h-28.469c-0.975 0-1.765 0.791-1.765 1.765v28.469c0 0.976 0.791 1.765 1.765 1.765h15.325v-12.392h-4.172v-4.828h4.172v-3.567c0-4.132 2.525-6.38 6.212-6.38 1.767 0 3.285 0.129 3.728 0.188v4.32h-2.561c-2 0-2.389 0.961-2.389 2.361v3.081h4.779l-0.62 4.84h-4.159v12.376h8.153c0.977 0 1.767-0.789 1.767-1.765v-28.469c0-0.975-0.789-1.765-1.765-1.765z"></path>
</symbol>
<symbol id="icon-git" viewBox="0 0 32 32">
<title>git</title>
<path d="M31.395 14.573l-13.972-13.971c-0.805-0.804-2.109-0.804-2.917 0l-2.895 2.9 3.68 3.68c0.86-0.287 1.839-0.093 2.519 0.588 0.688 0.687 0.877 1.677 0.584 2.533l3.544 3.547c0.86-0.297 1.849-0.104 2.533 0.58 0.961 0.96 0.961 2.512 0 3.472-0.959 0.959-2.508 0.959-3.467 0-0.719-0.721-0.899-1.783-0.539-2.661l-3.319-3.301v8.7c0.235 0.115 0.456 0.271 0.651 0.464 0.951 0.961 0.951 2.511 0 3.467-0.959 0.961-2.519 0.961-3.479 0-0.959-0.959-0.959-2.505 0-3.464 0.243-0.24 0.516-0.421 0.807-0.541v-8.785c-0.289-0.121-0.565-0.296-0.8-0.535-0.727-0.727-0.901-1.789-0.528-2.679l-3.616-3.633-9.581 9.575c-0.8 0.807-0.8 2.112 0 2.919l13.973 13.969c0.805 0.805 2.109 0.805 2.915 0l13.907-13.907c0.807-0.804 0.807-2.109 0-2.916z"></path>
</symbol>
<symbol id="icon-github" viewBox="0 0 32 32">
<title>github</title>
<path d="M16 0.396c-8.84 0-16 7.164-16 16 0 7.071 4.584 13.067 10.94 15.18 0.8 0.151 1.093-0.344 1.093-0.769 0-0.38-0.013-1.387-0.020-2.72-4.451 0.965-5.389-2.147-5.389-2.147-0.728-1.847-1.78-2.34-1.78-2.34-1.449-0.992 0.112-0.972 0.112-0.972 1.607 0.112 2.451 1.648 2.451 1.648 1.427 2.447 3.745 1.74 4.66 1.331 0.144-1.035 0.556-1.74 1.013-2.14-3.553-0.4-7.288-1.776-7.288-7.907 0-1.747 0.62-3.173 1.647-4.293-0.18-0.404-0.72-2.031 0.14-4.235 0 0 1.34-0.429 4.4 1.64 1.28-0.356 2.64-0.532 4-0.54 1.36 0.008 2.72 0.184 4 0.54 3.040-2.069 4.38-1.64 4.38-1.64 0.86 2.204 0.32 3.831 0.16 4.235 1.020 1.12 1.64 2.547 1.64 4.293 0 6.147-3.74 7.5-7.3 7.893 0.56 0.48 1.080 1.461 1.080 2.96 0 2.141-0.020 3.861-0.020 4.381 0 0.42 0.28 0.92 1.1 0.76 6.401-2.099 10.981-8.099 10.981-15.159 0-8.836-7.164-16-16-16z"></path>
</symbol>
<symbol id="icon-html5" viewBox="0 0 32 32">
<title>html5</title>
<path d="M2 0h28l-2.547 28.751-11.484 3.249-11.419-3.251-2.551-28.749zM11.375 13l-0.309-3.624 13.412 0.004 0.307-3.496-17.568-0.004 0.931 10.68h12.168l-0.435 4.568-3.88 1.072-3.94-1.080-0.251-2.813h-3.479l0.44 5.561 7.229 1.933 7.172-1.924 0.992-10.876h-12.789z"></path>
</symbol>
<symbol id="icon-javascript" viewBox="0 0 32 32">
<title>javascript</title>
<path d="M0 0h32v32h-32v-32zM29.379 24.368c-0.233-1.46-1.184-2.687-4.004-3.831-0.981-0.46-2.072-0.78-2.396-1.52-0.121-0.44-0.14-0.68-0.061-0.94 0.2-0.861 1.22-1.12 2.020-0.88 0.52 0.16 1 0.56 1.301 1.2 1.379-0.901 1.379-0.901 2.34-1.5-0.36-0.56-0.539-0.801-0.781-1.040-0.84-0.94-1.959-1.42-3.779-1.379l-0.94 0.119c-0.901 0.22-1.76 0.7-2.28 1.34-1.52 1.721-1.081 4.721 0.759 5.961 1.82 1.36 4.481 1.659 4.821 2.94 0.32 1.56-1.16 2.060-2.621 1.88-1.081-0.24-1.68-0.781-2.34-1.781l-2.44 1.401c0.28 0.64 0.6 0.919 1.080 1.479 2.32 2.341 8.12 2.221 9.161-1.339 0.039-0.12 0.32-0.94 0.099-2.2l0.061 0.089zM17.401 14.708h-2.997c0 2.584-0.012 5.152-0.012 7.74 0 1.643 0.084 3.151-0.184 3.615-0.44 0.919-1.573 0.801-2.088 0.64-0.528-0.261-0.796-0.621-1.107-1.14-0.084-0.14-0.147-0.261-0.169-0.261l-2.433 1.5c0.407 0.84 1 1.563 1.765 2.023 1.14 0.68 2.672 0.9 4.276 0.54 1.044-0.301 1.944-0.921 2.415-1.881 0.68-1.24 0.536-2.76 0.529-4.461 0.016-2.739 0-5.479 0-8.239l0.005-0.075z"></path>
</symbol>
<symbol id="icon-linkedin" viewBox="0 0 32 32">
<title>linkedin</title>
<path d="M27.263 27.269h-4.739v-7.425c0-1.771-0.036-4.049-2.469-4.049-2.471 0-2.848 1.927-2.848 3.919v7.556h-4.739v-15.269h4.552v2.081h0.061c0.636-1.2 2.183-2.467 4.493-2.467 4.801 0 5.689 3.16 5.689 7.273v8.381zM7.116 9.911c-1.525 0-2.751-1.235-2.751-2.753 0-1.517 1.227-2.751 2.751-2.751 1.52 0 2.752 1.233 2.752 2.751 0 1.519-1.233 2.753-2.752 2.753zM9.492 27.269h-4.752v-15.269h4.752v15.269zM29.633 0h-27.272c-1.305 0-2.361 1.032-2.361 2.305v27.389c0 1.275 1.056 2.305 2.361 2.305h27.268c1.304 0 2.371-1.031 2.371-2.305v-27.389c0-1.273-1.067-2.305-2.371-2.305h0.004z"></path>
</symbol>
<symbol id="icon-mongodb" viewBox="0 0 32 32">
<title>mongodb</title>
<path d="M22.907 12.691c-1.684-7.413-5.656-9.849-6.083-10.781-0.469-0.657-0.977-1.909-0.977-1.909-0.003 0.025-0.005 0.041-0.007 0.065v0.017h-0.001c-0.003 0.020-0.004 0.033-0.005 0.052v0.020h-0.003c0 0.013-0.003 0.024-0.003 0.035v0.035h-0.004c-0.001 0.011-0.001 0.024-0.004 0.033v0.028h-0.003c0 0.009 0 0.020-0.003 0.028v0.027h-0.003c0 0.013-0.001 0.029-0.003 0.043v0.003c-0.004 0.023-0.008 0.045-0.012 0.067v0.011h-0.003c-0.001 0.005-0.004 0.011-0.004 0.016v0.023h-0.004v0.029h-0.007v0.024h-0.007v0.028h-0.005v0.025h-0.005v0.023h-0.008v0.019h-0.005v0.024h-0.005v0.019h-0.007v0.017h-0.004v0.020h-0.005c-0.001 0.001-0.001 0.004-0.001 0.005v0.013h-0.004c-0.001 0.003-0.001 0.005-0.001 0.008v0.008h-0.003c-0.001 0.004-0.003 0.011-0.003 0.013-0.004 0.009-0.009 0.019-0.013 0.028v0.003c-0.003 0.003-0.005 0.007-0.007 0.009v0.011h-0.005v0.011h-0.007v0.011h-0.004v0.013h-0.008v0.019h-0.005v0.005h-0.005v0.011h-0.005v0.015h-0.005v0.011h-0.008v0.015h-0.005v0.011h-0.007v0.011h-0.004v0.013h-0.007v0.011h-0.005v0.008h-0.005v0.011h-0.008v0.012h-0.005v0.008h-0.007v0.011h-0.005v0.015h-0.007v0.005h-0.004v0.011h-0.008v0.005h-0.005v0.013h-0.005v0.005h-0.005v0.011h-0.007v0.008h-0.004l-0.003 0.005v0.005h-0.003c-0.001 0.003-0.003 0.003-0.003 0.005v0.001h-0.001c-0.001 0.004-0.003 0.007-0.005 0.009v0.004h-0.001c-0.007 0.008-0.011 0.016-0.016 0.024v0.001c-0.003 0.003-0.009 0.008-0.012 0.013v0.003h-0.001c-0.001 0.001-0.004 0.003-0.004 0.004v0.004h-0.003l-0.004 0.004v0.001h-0.001c0 0.001-0.003 0.003-0.004 0.005v0.005h-0.004l-0.003 0.003v0.003h-0.003c0 0.003-0.003 0.003-0.003 0.004v0.004h-0.005c0 0.001-0.001 0.003-0.003 0.004v0.008h-0.004v0.005h-0.005v0.008h-0.005v0.011h-0.007v-0.011h-0.007v0.005h-0.005v0.008h-0.007v0.011h-0.007v0.005h-0.005v0.008h-0.005v0.005h-0.005v0.011h-0.008v0.005h-0.005v0.008h-0.007v0.005h-0.005v0.007h-0.007v0.013h-0.003v0.005h-0.008v0.007h-0.005v0.003h-0.005v0.005h-0.007v0.013h-0.005v0.005h-0.007v0.005h-0.005v0.008h-0.007v0.005h-0.007v0.005h-0.005v0.005h-0.005v0.013h-0.005v0.007h-0.008v0.005h-0.005v0.005h-0.007v0.008h-0.005v0.005h-0.007v0.009h-0.005v0.005h-0.008v0.008h-0.003v0.005h-0.005v0.005h-0.007v0.005h-0.005v0.008h-0.007v0.005h-0.004c-0.001 0.001-0.001 0.003-0.001 0.003v0.003h-0.003l-0.005 0.005s-0.003 0.003-0.005 0.004v0.008h-0.005v0.007h-0.005v0.005h-0.005v0.005h-0.004l-0.004 0.004v0.004h-0.003l-0.003 0.003v0.004h-0.003c-0.007 0.008-0.009 0.013-0.019 0.021-0.003 0.003-0.011 0.009-0.016 0.013-0.016 0.011-0.036 0.028-0.052 0.043-0.011 0.007-0.021 0.016-0.029 0.023v0.001h-0.001c-0.021 0.017-0.041 0.033-0.065 0.052v0.001c-0.032 0.027-0.063 0.052-0.099 0.083v-0.001h-0.003c-0.076 0.063-0.156 0.133-0.248 0.212v0.001h-0.001c-0.225 0.197-0.493 0.451-0.793 0.757l-0.025 0.025c-1.813 1.876-4.671 5.785-4.972 12.103-0.027 0.523-0.021 1.031 0.008 1.525v0.012c0.145 2.489 0.927 4.615 1.904 6.341v0.001c0.389 0.688 0.809 1.313 1.235 1.873v0.001c1.469 1.94 2.969 3.089 3.352 3.368 0.588 1.364 0.533 3.705 0.533 3.705l0.859 0.287s-0.175-2.268 0.071-3.363c0.076-0.343 0.256-0.635 0.465-0.883 0.141-0.1 0.56-0.401 1.063-0.86 0.024-0.025 0.037-0.048 0.059-0.072 2.028-1.891 5.816-6.547 4.517-14.132z"></path>
</symbol>
<symbol id="icon-nodejs" viewBox="0 0 32 32">
<title>nodejs</title>
<path d="M15.247 0.204l-12.493 7.24c-0.467 0.271-0.752 0.771-0.751 1.311v14.485c0 0.539 0.287 1.040 0.752 1.309l12.493 7.247c0.467 0.271 1.040 0.271 1.507 0l12.488-7.244c0.467-0.273 0.752-0.771 0.753-1.309v-14.488c0-0.539-0.288-1.040-0.755-1.312l-12.485-7.24c-0.467-0.271-1.043-0.271-1.507 0z"></path>
</symbol>
<symbol id="icon-npm" viewBox="0 0 32 32">
<title>npm</title>
<path d="M0 9.779v10.667h8.888v1.776h7.112v-1.776h16v-10.667h-32zM8.888 18.664h-1.776v-5.333h-1.78v5.333h-3.552v-7.108h7.108v7.108zM14.221 18.664v1.781h-3.553v-8.889h7.112v7.109l-3.559-0.001zM30.223 18.664h-1.773v-5.333h-1.781v5.333h-1.78v-5.333h-1.773v5.333h-3.561v-7.108h10.669v7.108z"></path>
<path d="M14.22 13.333h1.78v3.556h-1.78v-3.556z"></path>
</symbol>
<symbol id="icon-react" viewBox="0 0 32 32">
<title>react</title>
<path d="M18.852 16c0 1.575-1.277 2.852-2.852 2.852s-2.852-1.277-2.852-2.852c0-1.575 1.277-2.852 2.852-2.852s2.852 1.277 2.852 2.852z"></path>
<path d="M8.011 21.673l-0.629-0.16c-4.691-1.185-7.381-3.197-7.381-5.519s2.691-4.333 7.381-5.519l0.629-0.159 0.177 0.624c0.545 1.86 1.163 3.443 1.899 4.957l-0.082-0.186 0.135 0.284-0.135 0.284c-0.656 1.329-1.275 2.912-1.761 4.551l-0.056 0.22-0.177 0.623zM7.089 11.933c-3.565 1.001-5.753 2.533-5.753 4.061 0 1.527 2.188 3.059 5.753 4.061 0.512-1.62 1.046-2.965 1.662-4.263l-0.086 0.202c-0.531-1.098-1.066-2.443-1.511-3.828l-0.065-0.234zM23.989 21.673l-0.177-0.625c-0.544-1.859-1.162-3.441-1.9-4.954l0.081 0.184-0.135-0.284 0.135-0.284c0.656-1.329 1.275-2.911 1.762-4.55l0.056-0.221 0.177-0.624 0.631 0.159c4.689 1.185 7.38 3.197 7.38 5.52s-2.691 4.333-7.38 5.519l-0.631 0.16zM23.335 15.995c0.64 1.385 1.169 2.747 1.576 4.061 3.567-1.003 5.753-2.535 5.753-4.061 0-1.528-2.188-3.059-5.753-4.061-0.511 1.619-1.045 2.963-1.662 4.262l0.086-0.2z"></path>
<path d="M7.080 11.927l-0.177-0.623c-1.319-4.648-0.919-7.979 1.097-9.141 1.977-1.141 5.152 0.207 8.479 3.621l0.453 0.465-0.453 0.465c-1.146 1.19-2.207 2.482-3.162 3.853l-0.068 0.103-0.18 0.257-0.313 0.027c-1.875 0.151-3.596 0.439-5.264 0.86l0.218-0.047-0.629 0.159zM9.608 3.087c-0.357 0-0.673 0.077-0.94 0.231-1.325 0.764-1.56 3.42-0.647 7.004 1.21-0.285 2.681-0.521 4.18-0.658l0.131-0.010c0.894-1.264 1.792-2.37 2.756-3.414l-0.020 0.022c-2.080-2.025-4.049-3.175-5.46-3.175zM22.393 30.236c-0.001 0-0.001 0 0 0-1.9 0-4.34-1.431-6.872-4.031l-0.453-0.465 0.453-0.465c1.146-1.19 2.206-2.482 3.16-3.854l0.068-0.103 0.18-0.257 0.312-0.027c1.875-0.15 3.597-0.438 5.267-0.858l-0.218 0.046 0.629-0.159 0.179 0.624c1.316 4.645 0.917 7.977-1.099 9.139-0.449 0.259-0.988 0.411-1.562 0.411-0.016 0-0.031-0-0.047-0l0.002 0zM16.932 25.728c2.080 2.025 4.049 3.175 5.46 3.175h0.001c0.356 0 0.673-0.077 0.939-0.231 1.325-0.764 1.561-3.421 0.647-7.005-1.212 0.286-2.682 0.522-4.182 0.658l-0.13 0.010c-0.893 1.265-1.791 2.371-2.755 3.416l0.020-0.022z"></path>
<path d="M24.92 11.927l-0.629-0.159c-1.453-0.376-3.175-0.664-4.939-0.806l-0.111-0.007-0.312-0.027-0.18-0.257c-1.021-1.474-2.082-2.766-3.237-3.966l0.009 0.010-0.453-0.465 0.453-0.465c3.325-3.413 6.499-4.761 8.479-3.621 2.016 1.163 2.416 4.493 1.099 9.14l-0.179 0.624zM19.667 9.653c1.523 0.139 2.969 0.364 4.312 0.668 0.915-3.584 0.679-6.24-0.647-7.004-1.317-0.761-3.793 0.405-6.4 2.944 0.943 1.022 1.841 2.128 2.666 3.289l0.069 0.103zM9.608 30.236c-0.014 0-0.030 0-0.046 0-0.574 0-1.113-0.152-1.577-0.419l0.015 0.008c-2.016-1.161-2.416-4.492-1.097-9.139l0.176-0.624 0.629 0.159c1.54 0.388 3.239 0.661 5.047 0.812l0.313 0.027 0.179 0.257c1.022 1.475 2.083 2.767 3.239 3.967l-0.010-0.010 0.453 0.465-0.453 0.465c-2.531 2.6-4.971 4.031-6.868 4.031zM8.021 21.667c-0.915 3.584-0.679 6.241 0.647 7.005 1.316 0.751 3.791-0.407 6.4-2.944-0.943-1.022-1.841-2.129-2.667-3.29l-0.069-0.103c-1.629-0.146-3.099-0.382-4.534-0.711l0.224 0.043z"></path>
<path d="M16 22.504c-1.097 0-2.225-0.048-3.355-0.141l-0.313-0.027-0.18-0.257c-0.544-0.768-1.139-1.691-1.697-2.639l-0.103-0.19c-0.452-0.758-0.971-1.732-1.45-2.728l-0.105-0.243-0.133-0.284 0.133-0.284c0.584-1.239 1.102-2.212 1.658-3.161l-0.103 0.191c0.552-0.955 1.159-1.907 1.8-2.829l0.18-0.257 0.313-0.027c1.005-0.090 2.174-0.142 3.355-0.142s2.35 0.052 3.505 0.153l-0.15-0.011 0.312 0.027 0.179 0.257c1.177 1.666 2.294 3.567 3.252 5.56l0.104 0.24 0.135 0.284-0.135 0.284c-1.058 2.232-2.176 4.133-3.439 5.925l0.083-0.125-0.179 0.257-0.312 0.027c-1.129 0.093-2.259 0.141-3.356 0.141zM13.071 21.059c1.973 0.148 3.885 0.148 5.86 0 1.004-1.445 1.978-3.104 2.827-4.836l0.101-0.228c-0.947-1.958-1.922-3.617-3.012-5.19l0.083 0.126c-0.877-0.071-1.898-0.111-2.929-0.111s-2.052 0.040-3.063 0.119l0.134-0.008c-1.008 1.447-1.983 3.106-2.83 4.84l-0.099 0.224c0.951 1.96 1.926 3.619 3.014 5.193l-0.085-0.13z"></path>
</symbol>
<symbol id="icon-redis" viewBox="0 0 32 32">
<title>redis</title>
<path d="M31.992 19.12c-0.013 0.305-0.417 0.647-1.247 1.080-1.708 0.889-10.555 4.528-12.437 5.509-1.884 0.981-2.929 0.972-4.417 0.26-1.488-0.711-10.901-4.515-12.597-5.324-0.847-0.405-1.279-0.747-1.293-1.069v3.235c0 0.323 0.445 0.665 1.293 1.071 1.696 0.811 11.111 4.613 12.597 5.324 1.488 0.712 2.533 0.721 4.417-0.261 1.883-0.981 10.729-4.619 12.437-5.509 0.868-0.452 1.252-0.804 1.252-1.123 0-0.301 0.001-3.189 0.001-3.189-0.001-0.001-0.005-0.001-0.007-0.003z"></path>
<path d="M31.991 13.847c-0.015 0.305-0.417 0.645-1.245 1.079-1.708 0.889-10.555 4.528-12.437 5.509-1.884 0.981-2.929 0.972-4.417 0.261s-10.901-4.515-12.597-5.325c-0.847-0.404-1.279-0.747-1.293-1.068v3.235c0 0.323 0.445 0.664 1.293 1.069 1.696 0.811 11.109 4.613 12.597 5.324 1.488 0.712 2.533 0.721 4.417-0.26 1.883-0.981 10.729-4.62 12.437-5.509 0.868-0.453 1.252-0.805 1.252-1.124 0-0.301 0.001-3.189 0.001-3.189-0.001-0.001-0.005 0-0.008-0.001z"></path>
<path d="M31.991 8.377c0.016-0.325-0.409-0.611-1.265-0.925-1.664-0.609-10.457-4.109-12.141-4.727-1.684-0.616-2.369-0.591-4.348 0.119-1.979 0.711-11.341 4.383-13.007 5.035-0.833 0.328-1.241 0.631-1.227 0.953v3.235c0 0.323 0.445 0.664 1.293 1.069 1.696 0.811 11.109 4.615 12.597 5.325s2.533 0.72 4.417-0.261c1.883-0.981 10.729-4.62 12.437-5.509 0.868-0.453 1.252-0.805 1.252-1.124 0-0.3 0.001-3.189 0.001-3.189h-0.011zM11.459 11.439l7.415-1.139-2.24 3.284-5.175-2.145zM27.858 8.481l-4.86 1.919-4.383-1.732 4.856-1.92 4.387 1.733zM14.984 5.304l-0.717-1.323 2.237 0.875 2.109-0.691-0.571 1.367 2.149 0.805-2.772 0.288-0.621 1.493-1.003-1.665-3.201-0.288 2.389-0.861zM9.46 7.169c2.189 0 3.963 0.688 3.963 1.536s-1.775 1.536-3.963 1.536-3.964-0.689-3.964-1.536c0-0.848 1.775-1.536 3.964-1.536z"></path>
</symbol>
<symbol id="icon-redux" viewBox="0 0 32 32">
<title>redux</title>
<path d="M22.177 22.005c1.159-0.1 2.057-1.12 1.999-2.339-0.061-1.219-1.060-2.197-2.277-2.197h-0.081c-1.257 0.041-2.237 1.099-2.197 2.359 0.040 0.639 0.301 1.159 0.659 1.537-1.397 2.717-3.495 4.715-6.672 6.393-2.137 1.117-4.395 1.539-6.592 1.239-1.837-0.259-3.275-1.080-4.155-2.397-1.317-1.999-1.437-4.155-0.34-6.312 0.801-1.559 1.999-2.697 2.799-3.257-0.2-0.519-0.44-1.397-0.56-2.056-5.915 4.236-5.313 10.028-3.516 12.765 1.339 1.997 4.076 3.275 7.072 3.275 0.799 0 1.639-0.059 2.457-0.259 5.195-0.999 9.129-4.115 11.387-8.709l0.019-0.041z"></path>
<path d="M29.308 17.011c-3.095-3.636-7.651-5.633-12.845-5.633h-0.68c-0.337-0.739-1.116-1.199-1.996-1.199h-0.060c-1.257 0-2.237 1.080-2.196 2.337 0.040 1.197 1.059 2.197 2.277 2.197h0.099c0.9-0.040 1.679-0.6 1.997-1.399h0.74c3.079 0 5.993 0.899 8.651 2.656 2.036 1.339 3.496 3.096 4.315 5.195 0.717 1.717 0.679 3.396-0.060 4.796-1.139 2.196-3.057 3.356-5.593 3.356-1.599 0-3.156-0.5-3.956-0.859-0.479 0.397-1.279 1.057-1.859 1.457 1.757 0.797 3.536 1.257 5.253 1.257 3.896 0 6.791-2.196 7.891-4.315 1.197-2.397 1.099-6.432-1.959-9.888l-0.019 0.040z"></path>
<path d="M8.653 22.723c0.039 1.199 1.057 2.197 2.277 2.197h0.080c1.279-0.040 2.257-1.097 2.197-2.357 0-1.199-1.039-2.196-2.257-2.196h-0.081c-0.080 0-0.199 0-0.3 0.039-1.657-2.797-2.357-5.795-2.096-9.028 0.159-2.437 0.959-4.556 2.396-6.313 1.199-1.499 3.456-2.239 4.995-2.277 4.315-0.081 6.113 5.295 6.252 7.432l1.997 0.599c-0.46-6.552-4.533-9.989-8.429-9.989-3.656 0-7.031 2.657-8.391 6.553-1.857 5.195-0.639 10.188 1.639 14.184-0.199 0.26-0.319 0.719-0.279 1.157z"></path>
</symbol>
<symbol id="icon-sass" viewBox="0 0 32 32">
<title>sass</title>
<path d="M16 0c8.836 0 16 7.164 16 16s-7.164 16-16 16-16-7.164-16-16 7.164-16 16-16zM12.82 21.331c0.233 0.86 0.208 1.664-0.032 2.389l-0.087 0.24c-0.032 0.081-0.069 0.16-0.104 0.235-0.187 0.387-0.435 0.747-0.74 1.080-0.931 1.012-2.229 1.396-2.787 1.073-0.6-0.349-0.301-1.78 0.779-2.92 1.161-1.224 2.827-2.012 2.827-2.012v-0.004l0.144-0.081zM26.035 6.849c-0.723-2.844-5.436-3.779-9.896-2.193-2.652 0.943-5.525 2.424-7.591 4.356-2.457 2.295-2.848 4.295-2.687 5.131 0.569 2.948 4.609 4.876 6.271 6.307v0.008c-0.489 0.24-4.075 2.039-4.915 3.9-0.9 1.96 0.14 3.361 0.82 3.54 2.1 0.581 4.26-0.48 5.42-2.199 1.12-1.681 1.021-3.841 0.539-4.901 0.661-0.18 1.44-0.26 2.44-0.139 2.801 0.32 3.361 2.080 3.24 2.8-0.12 0.719-0.697 1.139-0.899 1.259-0.2 0.121-0.26 0.16-0.241 0.241 0.020 0.12 0.121 0.12 0.28 0.1 0.22-0.040 1.461-0.6 1.521-1.961 0.060-1.72-1.581-3.639-4.5-3.6-1.2 0.021-1.961 0.121-2.5 0.341-0.040-0.060-0.081-0.1-0.14-0.14-1.8-1.94-5.14-3.3-5-5.88 0.040-0.94 0.38-3.419 6.4-6.419 4.94-2.461 8.881-1.78 9.561-0.28 0.977 2.139-2.101 6.12-7.241 6.699-1.96 0.22-2.98-0.539-3.241-0.82-0.279-0.3-0.319-0.32-0.419-0.259-0.16 0.080-0.060 0.34 0 0.5 0.16 0.4 0.78 1.1 1.861 1.46 0.939 0.3 3.24 0.479 6-0.6 3.099-1.199 5.519-4.54 4.819-7.34l0.097 0.089z"></path>
</symbol>
<symbol id="icon-snapchat" viewBox="0 0 32 32">
<title>snapchat</title>
<path d="M16.275 1.057c1.32 0 5.796 0.368 7.907 5.095 0.705 1.591 0.537 4.292 0.399 6.463l-0.004 0.080c-0.016 0.24-0.029 0.46-0.040 0.68 0.1 0.060 0.271 0.12 0.535 0.12 0.4-0.021 0.879-0.16 1.377-0.401 0.22-0.117 0.459-0.139 0.619-0.139 0.243 0 0.479 0.039 0.679 0.12 0.6 0.199 0.979 0.639 0.979 1.117 0.020 0.599-0.52 1.119-1.617 1.557-0.119 0.039-0.279 0.1-0.459 0.159-0.6 0.18-1.519 0.48-1.777 1.080-0.12 0.299-0.081 0.699 0.16 1.157l0.020 0.020c0.080 0.181 2.035 4.633 6.388 5.352 0.34 0.059 0.58 0.36 0.56 0.679 0 0.1-0.020 0.199-0.060 0.3-0.32 0.759-1.697 1.317-4.195 1.695-0.079 0.121-0.16 0.5-0.219 0.76-0.039 0.239-0.099 0.48-0.179 0.737-0.101 0.361-0.36 0.54-0.74 0.54h-0.040c-0.18 0-0.417-0.041-0.717-0.099-0.48-0.1-1.020-0.18-1.697-0.18-0.4 0-0.799 0.020-1.217 0.099-0.8 0.139-1.497 0.619-2.297 1.179-1.137 0.799-2.435 1.717-4.392 1.717-0.080 0-0.159-0.020-0.24-0.020h-0.199c-1.957 0-3.236-0.9-4.372-1.717-0.799-0.56-1.476-1.039-2.276-1.179-0.419-0.060-0.839-0.099-1.237-0.099-0.72 0-1.277 0.119-1.696 0.199-0.281 0.057-0.521 0.099-0.72 0.099-0.499 0-0.697-0.299-0.777-0.56-0.081-0.256-0.12-0.519-0.18-0.756-0.061-0.241-0.14-0.659-0.221-0.76-2.557-0.296-3.933-0.856-4.252-1.635-0.041-0.084-0.069-0.2-0.073-0.3-0.020-0.324 0.22-0.62 0.56-0.679 4.352-0.72 6.307-5.172 6.388-5.36l0.021-0.039c0.24-0.46 0.299-0.86 0.159-1.159-0.26-0.579-1.179-0.877-1.776-1.079-0.161-0.039-0.32-0.099-0.461-0.159-1.476-0.58-1.676-1.24-1.596-1.697 0.12-0.639 0.899-1.057 1.557-1.057 0.195 0 0.36 0.039 0.511 0.099 0.56 0.259 1.052 0.4 1.472 0.4 0.312 0 0.512-0.080 0.62-0.14l-0.061-0.759c-0.131-2.168-0.3-4.868 0.409-6.449 2.052-4.703 6.515-5.063 7.832-5.063l0.559-0.020h0.080z"></path>
</symbol>
<symbol id="icon-stackoverflow" viewBox="0 0 32 32">
<title>stackoverflow</title>
<path d="M25.315 29.153v-8.539h2.845v11.385h-25.701v-11.385h2.84v8.539h20.016zM8.148 26.308h14.319v-2.849h-14.319v2.849zM8.493 19.839l13.973 2.919 0.601-2.76-13.971-2.916-0.604 2.757zM10.305 13.097l12.94 6.040 1.204-2.6-12.941-6.040-1.203 2.581v0.019zM13.925 6.717l10.956 9.14 1.812-2.16-10.955-9.137-1.8 2.156-0.013 0.001zM21.001 0l-2.328 1.725 8.54 11.472 2.328-1.725-8.54-11.472z"></path>
</symbol>
<symbol id="icon-twitter" viewBox="0 0 32 32">
<title>twitter</title>
<path d="M31.939 6.092c-1.18 0.519-2.44 0.872-3.767 1.033 1.352-0.815 2.392-2.099 2.884-3.631-1.268 0.74-2.673 1.279-4.169 1.579-1.195-1.279-2.897-2.079-4.788-2.079-3.623 0-6.56 2.937-6.56 6.556 0 0.52 0.060 1.020 0.169 1.499-5.453-0.257-10.287-2.876-13.521-6.835-0.569 0.963-0.888 2.081-0.888 3.3 0 2.28 1.16 4.284 2.917 5.461-1.076-0.035-2.088-0.331-2.971-0.821v0.081c0 3.18 2.257 5.832 5.261 6.436-0.551 0.148-1.132 0.228-1.728 0.228-0.419 0-0.82-0.040-1.221-0.115 0.841 2.604 3.26 4.503 6.139 4.556-2.24 1.759-5.079 2.807-8.136 2.807-0.52 0-1.039-0.031-1.56-0.089 2.919 1.859 6.357 2.945 10.076 2.945 12.072 0 18.665-9.995 18.665-18.648 0-0.279 0-0.56-0.020-0.84 1.281-0.919 2.4-2.080 3.28-3.397l-0.063-0.027z"></path>
</symbol>
<symbol id="icon-unsplash" viewBox="0 0 32 32">
<title>unsplash</title>
<path d="M20.8 18.1c0 2.7-2.2 4.8-4.8 4.8s-4.8-2.1-4.8-4.8c0-2.7 2.2-4.8 4.8-4.8 2.7 0.1 4.8 2.2 4.8 4.8zM32 10.7v14.9c0 2.3-1.9 4.3-4.3 4.3h-23.4c-2.4 0-4.3-1.9-4.3-4.3v-15c0-2.3 1.9-4.3 4.3-4.3h3.7l0.8-2.3c0.4-1.1 1.7-2 2.9-2h8.6c1.2 0 2.5 0.9 2.9 2l0.8 2.4h3.7c2.4 0 4.3 1.9 4.3 4.3zM23.4 18.2c0-4.1-3.3-7.5-7.5-7.5-4.1 0-7.5 3.4-7.5 7.5s3.3 7.5 7.5 7.5c4.2-0.1 7.5-3.4 7.5-7.5z"></path>
</symbol>
</defs>
</svg>
